<svg width="19" height="19" viewBox="0 0 19 19" fill="none" xmlns="http://www.w3.org/2000/svg">
<path d="M9.65492 1.32427C9.34243 1.01169 8.91858 0.836032 8.47659 0.835938H2.49992C2.05789 0.835938 1.63397 1.01153 1.32141 1.32409C1.00885 1.63665 0.833252 2.06058 0.833252 2.5026V8.47927C0.833346 8.92126 1.009 9.34512 1.32159 9.6576L8.57492 16.9109C8.95368 17.2873 9.46596 17.4985 9.99992 17.4985C10.5339 17.4985 11.0462 17.2873 11.4249 16.9109L16.9083 11.4276C17.2846 11.0488 17.4959 10.5366 17.4959 10.0026C17.4959 9.46864 17.2846 8.95637 16.9083 8.5776L9.65492 1.32427Z" stroke="#030711" stroke-width="1.66667" stroke-linecap="round" stroke-linejoin="round"/>
</svg>
